name C:/MyDriveSym/Projects/mobilecap/Data\Session20210813_0002\mocap\ForceDataProcessed\walking2_forces.mot
datacolumns 19
datarows 27
range 0.00000000 0.01300000
endheader 
time	R_ground_force_vx	R_ground_force_vy	R_ground_force_vz	R_ground_force_px	R_ground_force_py	R_ground_force_pz	R_ground_torque_x	R_ground_torque_y	R_ground_torque_z	L_ground_force_vx	L_ground_force_vy	L_ground_force_vz	L_ground_force_px	L_ground_force_py	L_ground_force_pz	L_ground_torque_x	L_ground_torque_y	L_ground_torque_z	
          0.00000000	       -150.30103000	        698.86627100	        -15.50131100	          0.17777100	          0.00600000	         -0.16379100	          0.00000000	          0.44855200	          0.00000000	          0.00000000	          0.00000000	          0.00000000	          0.75757500	          0.00000000	         -0.12011700	          0.00000000	          0.00000000	          0.00000000	
          0.00050000	       -150.34950300	        699.55550300	        -15.49122200	          0.17777100	          0.00600000	         -0.16379100	          0.00000000	          0.45921400	          0.00000000	          0.00000000	          0.00000000	          0.00000000	          0.75757500	          0.00000000	         -0.12011700	          0.00000000	          0.00000000	          0.00000000	
          0.00100000	       -150.39730600	        700.24696900	        -15.48152100	          0.17777100	          0.00600000	         -0.16379100	          0.00000000	          0.46987900	          0.00000000	          0.00000000	          0.00000000	          0.00000000	          0.75757500	          0.00000000	         -0.12011700	          0.00000000	          0.00000000	          0.00000000	
          0.00150000	       -150.44442100	        700.94060000	        -15.47221700	          0.17777100	          0.00600000	         -0.16379100	          0.00000000	          0.48054300	          0.00000000	          0.00000000	          0.00000000	          0.00000000	          0.75757500	          0.00000000	         -0.12011700	          0.00000000	          0.00000000	          0.00000000	
          0.00200000	       -150.49082800	        701.63632800	        -15.46331800	          0.17796200	          0.00600000	         -0.16373600	          0.00000000	          0.49120800	          0.00000000	          0.00000000	          0.00000000	          0.00000000	          0.75757500	          0.00000000	         -0.12011700	          0.00000000	          0.00000000	          0.00000000	
          0.00250000	       -150.53650900	        702.33408200	        -15.45483200	          0.17815300	          0.00600000	         -0.16368000	          0.00000000	          0.50187000	          0.00000000	          0.00000000	          0.00000000	          0.00000000	          0.75757500	          0.00000000	         -0.12011700	          0.00000000	          0.00000000	          0.00000000	
          0.00300000	       -150.58144400	        703.03379100	        -15.44676600	          0.17834600	          0.00600000	         -0.16362400	          0.00000000	          0.51253000	          0.00000000	          0.00000000	          0.00000000	          0.00000000	          0.75757500	          0.00000000	         -0.12011700	          0.00000000	          0.00000000	          0.00000000	
          0.00350000	       -150.62561400	        703.73538300	        -15.43912800	          0.17853900	          0.00600000	         -0.16356800	          0.00000000	          0.52318600	          0.00000000	          0.00000000	          0.00000000	          0.00000000	          0.75757500	          0.00000000	         -0.12011700	          0.00000000	          0.00000000	          0.00000000	
          0.00400000	       -150.66900000	        704.43878600	        -15.43192700	          0.17873200	          0.00600000	         -0.16351100	          0.00000000	          0.53383600	          0.00000000	          0.00000000	          0.00000000	          0.00000000	          0.75757500	          0.00000000	         -0.12011700	          0.00000000	          0.00000000	          0.00000000	
          0.00450000	       -150.71158300	        705.14392500	        -15.42516800	          0.17892700	          0.00600000	         -0.16345400	          0.00000000	          0.54448100	          0.00000000	          0.00000000	          0.00000000	          0.00000000	          0.75757500	          0.00000000	         -0.12011700	          0.00000000	          0.00000000	          0.00000000	
          0.00500000	       -150.75334400	        705.85072700	        -15.41886000	          0.17912200	          0.00600000	         -0.16339600	          0.00000000	          0.55511700	          0.00000000	          0.00000000	          0.00000000	          0.00000000	          0.75757500	          0.00000000	         -0.12011700	          0.00000000	          0.00000000	          0.00000000	
          0.00550000	       -150.79426300	        706.55911700	        -15.41301000	          0.17931800	          0.00600000	         -0.16333800	          0.00000000	          0.56574600	          0.00000000	          0.00000000	          0.00000000	          0.00000000	          0.75757500	          0.00000000	         -0.12011700	          0.00000000	          0.00000000	          0.00000000	
          0.00600000	       -150.83432300	        707.26901800	        -15.40762500	          0.17951500	          0.00600000	         -0.16328000	          0.00000000	          0.57636500	          0.00000000	          0.00000000	          0.00000000	          0.00000000	          0.75757500	          0.00000000	         -0.12011700	          0.00000000	          0.00000000	          0.00000000	
          0.00650000	       -150.87350300	        707.98035500	        -15.40271100	          0.17971200	          0.00600000	         -0.16322100	          0.00000000	          0.58697300	          0.00000000	          0.00000000	          0.00000000	          0.00000000	          0.75757500	          0.00000000	         -0.12011700	          0.00000000	          0.00000000	          0.00000000	
          0.00700000	       -150.91178600	        708.69305100	        -15.39827600	          0.17991000	          0.00600000	         -0.16316200	          0.00000000	          0.59757000	          0.00000000	          0.00000000	          0.00000000	          0.00000000	          0.75757500	          0.00000000	         -0.12011700	          0.00000000	          0.00000000	          0.00000000	
          0.00750000	       -150.94915300	        709.40702900	        -15.39432600	          0.18010900	          0.00600000	         -0.16310200	          0.00000000	          0.60815400	          0.00000000	          0.00000000	          0.00000000	          0.00000000	          0.75757500	          0.00000000	         -0.12011700	          0.00000000	          0.00000000	          0.00000000	
          0.00800000	       -150.98558500	        710.12221000	        -15.39086700	          0.18030800	          0.00600000	         -0.16304300	          0.00000000	          0.61872400	          0.00000000	          0.00000000	          0.00000000	          0.00000000	          0.75757500	          0.00000000	         -0.12011700	          0.00000000	          0.00000000	          0.00000000	
          0.00850000	       -151.02106400	        710.83851700	        -15.38790600	          0.18050800	          0.00600000	         -0.16298200	          0.00000000	          0.62928000	          0.00000000	          0.00000000	          0.00000000	          0.00000000	          0.75757500	          0.00000000	         -0.12011700	          0.00000000	          0.00000000	          0.00000000	
          0.00900000	       -151.05557100	        711.55587200	        -15.38544900	          0.18070900	          0.00600000	         -0.16292200	          0.00000000	          0.63982000	          0.00000000	          0.00000000	          0.00000000	          0.00000000	          0.75757500	          0.00000000	         -0.12011700	          0.00000000	          0.00000000	          0.00000000	
          0.00950000	       -151.08908900	        712.27419300	        -15.38350000	          0.18091000	          0.00600000	         -0.16286100	          0.00000000	          0.65034400	          0.00000000	          0.00000000	          0.00000000	          0.00000000	          0.75757500	          0.00000000	         -0.12011700	          0.00000000	          0.00000000	          0.00000000	
          0.01000000	       -151.12159900	        712.99340300	        -15.38206700	          0.18111200	          0.00600000	         -0.16279900	          0.00000000	          0.66085000	          0.00000000	          0.00000000	          0.00000000	          0.00000000	          0.75757500	          0.00000000	         -0.12011700	          0.00000000	          0.00000000	          0.00000000	
          0.01050000	       -151.15308300	        713.71342100	        -15.38115400	          0.18131400	          0.00600000	         -0.16273800	          0.00000000	          0.67133700	          0.00000000	          0.00000000	          0.00000000	          0.00000000	          0.75757500	          0.00000000	         -0.12011700	          0.00000000	          0.00000000	          0.00000000	
          0.01100000	       -151.18352400	        714.43416700	        -15.38076700	          0.18151700	          0.00600000	         -0.16267500	          0.00000000	          0.68180600	          0.00000000	          0.00000000	          0.00000000	          0.00000000	          0.75757500	          0.00000000	         -0.12011700	          0.00000000	          0.00000000	          0.00000000	
          0.01150000	       -151.21290300	        715.15555900	        -15.38090900	          0.18172100	          0.00600000	         -0.16261300	          0.00000000	          0.69225400	          0.00000000	          0.00000000	          0.00000000	          0.00000000	          0.75757500	          0.00000000	         -0.12011700	          0.00000000	          0.00000000	          0.00000000	
          0.01200000	       -151.24120400	        715.87751700	        -15.38158700	          0.18192500	          0.00600000	         -0.16255000	          0.00000000	          0.70268200	          0.00000000	          0.00000000	          0.00000000	          0.00000000	          0.75757500	          0.00000000	         -0.12011700	          0.00000000	          0.00000000	          0.00000000	
          0.01250000	       -151.26840800	        716.59995800	        -15.38280300	          0.18213000	          0.00600000	         -0.16248700	          0.00000000	          0.71308700	          0.00000000	          0.00000000	          0.00000000	          0.00000000	          0.75757500	          0.00000000	         -0.12011700	          0.00000000	          0.00000000	          0.00000000	
          0.01300000	       -151.29449900	        717.32280300	        -15.38456300	          0.18233500	          0.00600000	         -0.16242300	          0.00000000	          0.72347000	          0.00000000	          0.00000000	          0.00000000	          0.00000000	          0.75757500	          0.00000000	         -0.12011700	          0.00000000	          0.00000000	          0.00000000	
